<?xml version="1.0" encoding="UTF-8" standalone="no"?>
<svg
   xml:space="preserve"
   width="26"
   height="26"
   style="isolation:isolate"
   viewBox="66.993 897.484 26 26"
   version="1.1"
   id="svg2"
   sodipodi:docname="logo.svg"
   inkscape:version="1.4.2 (f4327f4, 2025-05-13)"
   xmlns:inkscape="http://www.inkscape.org/namespaces/inkscape"
   xmlns:sodipodi="http://sodipodi.sourceforge.net/DTD/sodipodi-0.dtd"
   xmlns:xlink="http://www.w3.org/1999/xlink"
   xmlns="http://www.w3.org/2000/svg"
   xmlns:svg="http://www.w3.org/2000/svg"><sodipodi:namedview
     id="namedview2"
     pagecolor="#ffffff"
     bordercolor="#000000"
     borderopacity="0.25"
     inkscape:showpageshadow="2"
     inkscape:pageopacity="0.0"
     inkscape:pagecheckerboard="0"
     inkscape:deskcolor="#d1d1d1"
     inkscape:zoom="10.973753"
     inkscape:cx="23.73846"
     inkscape:cy="-1.8680938"
     inkscape:window-width="1920"
     inkscape:window-height="1009"
     inkscape:window-x="3832"
     inkscape:window-y="-8"
     inkscape:window-maximized="1"
     inkscape:current-layer="svg2" /><defs
     id="defs1"><linearGradient
       xlink:href="#a"
       id="b"
       x1=".148"
       x2=".845"
       y1=".851"
       y2=".154"
       gradientTransform="matrix(26.00048 0 0 25.99935 66.993 897.485)"
       gradientUnits="userSpaceOnUse" /></defs><linearGradient
     id="a"
     x1=".148"
     x2=".845"
     y1=".851"
     y2=".154"
     gradientTransform="matrix(26.301 0 0 26.331 90.674 911.757)"
     gradientUnits="userSpaceOnUse"><stop
       offset="0"
       stop-color="#004ba6"
       style="stop-color:#0071ff;stop-opacity:1"
       id="stop1" /><stop
       offset="1"
       stop-color="#00bfe1"
       style="stop-color:#00bfe1;stop-opacity:1"
       id="stop2" /></linearGradient><g
     id="g5"
     transform="matrix(0.05201487,0,0,0.06624648,67.025221,893.28282)">
	<path
   class="st0"
   d="m 263.75,171.59 c 52.61,0 73.47,22.85 73.47,58.6 0,35.72 -20.86,58.37 -73.47,58.37 h -55.27 v 38.38 h -45.7 V 171.59 Z m 0,78.1 c 20.86,0 27.74,-7.55 27.74,-19.53 0,-12.21 -6.88,-19.76 -27.74,-19.76 h -55.27 v 39.28 h 55.27 z"
   id="path1"
   style="fill:#ba0000" />
	<g
   id="g2">
		<polygon
   class="st0"
   points="500,282.6 500,229.25 373.66,183.42 373.66,234.8 "
   id="polygon1"
   style="fill:#ba0000" />
		<polygon
   points="373.66,328.41 500,282.6 500,229.25 373.66,277.05 "
   id="polygon2" />
	</g>
	<g
   id="g4">
		<polygon
   class="st0"
   points="0,229.25 0,282.6 126.34,328.41 126.34,277.05 "
   id="polygon3"
   style="fill:#ba0000" />
		<polygon
   points="126.34,183.42 0,229.25 0,282.6 126.34,234.8 "
   id="polygon4" />
	</g>
</g></svg>
