<?xml version="1.0" encoding="UTF-8" standalone="no"?>
<svg
   style="isolation:isolate"
   viewBox="66.993 897.484 32 32.000001"
   version="1.1"
   id="svg11"
   sodipodi:docname="scalable.svg"
   xml:space="preserve"
   inkscape:export-filename="216333102-4d10c195-be66-4fa0-97ca-70a71756b25e.png"
   inkscape:export-xdpi="3733.2917"
   inkscape:export-ydpi="3733.2917"
   inkscape:version="1.4.2 (f4327f4, 2025-05-13)"
   width="32"
   height="32"
   xmlns:inkscape="http://www.inkscape.org/namespaces/inkscape"
   xmlns:sodipodi="http://sodipodi.sourceforge.net/DTD/sodipodi-0.dtd"
   xmlns="http://www.w3.org/2000/svg"
   xmlns:svg="http://www.w3.org/2000/svg"><defs
     id="defs15" /><sodipodi:namedview
     id="namedview13"
     pagecolor="#ffffff"
     bordercolor="#000000"
     borderopacity="0.25"
     inkscape:showpageshadow="2"
     inkscape:pageopacity="0.0"
     inkscape:pagecheckerboard="0"
     inkscape:deskcolor="#d1d1d1"
     showgrid="false"
     inkscape:zoom="7.3747632"
     inkscape:cx="16.339508"
     inkscape:cy="37.492729"
     inkscape:window-width="1920"
     inkscape:window-height="1009"
     inkscape:window-x="3832"
     inkscape:window-y="-8"
     inkscape:window-maximized="1"
     inkscape:current-layer="svg11"
     showguides="true" /><linearGradient
     id="a"
     x1="0.14773831"
     x2="0.84543866"
     y1="0.85134232"
     y2="0.15443686"
     gradientTransform="matrix(26.301,0,0,26.331,90.673535,911.7572)"
     gradientUnits="userSpaceOnUse"><stop
       offset="0"
       stop-color="#004ba6"
       id="stop4"
       style="stop-color:#0071ff;stop-opacity:1;" /><stop
       offset="1"
       stop-color="#00bfe1"
       id="stop6"
       style="stop-color:#00bfe1;stop-opacity:1;" /></linearGradient><g
     id="g5"
     transform="matrix(0.06340506,0,0,0.07835186,67.24426,894.86875)"
     style="isolation:isolate">
	<path
   class="st0"
   d="m 263.75,171.59 c 52.61,0 73.47,22.85 73.47,58.6 0,35.72 -20.86,58.37 -73.47,58.37 h -55.27 v 38.38 h -45.7 V 171.59 Z m 0,78.1 c 20.86,0 27.74,-7.55 27.74,-19.53 0,-12.21 -6.88,-19.76 -27.74,-19.76 h -55.27 v 39.28 h 55.27 z"
   id="path1"
   style="fill:#ba0000" />
	<g
   id="g2">
		<polygon
   class="st0"
   points="500,229.25 373.66,183.42 373.66,234.8 500,282.6 "
   id="polygon1"
   style="fill:#ba0000" />
		<polygon
   points="500,282.6 500,229.25 373.66,277.05 373.66,328.41 "
   id="polygon2" />
	</g>
	<g
   id="g4">
		<polygon
   class="st0"
   points="0,282.6 126.34,328.41 126.34,277.05 0,229.25 "
   id="polygon3"
   style="fill:#ba0000" />
		<polygon
   points="0,229.25 0,282.6 126.34,234.8 126.34,183.42 "
   id="polygon4" />
	</g>
</g></svg>
